<svg width="154" height="74" viewBox="0 0 154 74" fill="none" xmlns="http://www.w3.org/2000/svg">
<path d="M42.6261 29.9099C39.3962 29.9099 36.0029 29.3033 33.3434 27.8424V2.06746C35.9613 0.647867 39.3546 0 42.6261 0C45.8976 0 49.2108 0.606582 51.8254 2.06746V11.957H45.2407V5.2274C44.4653 4.90347 43.5233 4.78278 42.5844 4.78278C41.6456 4.78278 40.7836 4.90347 39.9666 5.2274V24.6825C40.742 25.0064 41.6424 25.1271 42.5844 25.1271C43.5265 25.1271 44.4236 25.0064 45.2407 24.6825V17.9561H51.8254V27.8456C49.2492 29.2652 45.8559 29.8718 42.6261 29.913V29.9099Z" fill="#F7DD43"/>
<path d="M64.1745 29.9099C60.6979 29.9099 57.3463 29.1794 54.6868 27.6804V2.18814C57.3047 0.730438 60.6595 0 64.1745 0C67.6896 0 70.9611 0.689153 73.5789 2.18814V27.6804C71.0027 29.1794 67.6095 29.8686 64.1745 29.9099ZM66.9974 5.30997C66.222 4.98604 65.28 4.82407 64.1361 4.82407C62.9922 4.82407 62.0918 4.98604 61.3131 5.30997V24.5618C62.0886 24.927 63.0306 25.089 64.1361 25.089C65.2415 25.089 66.1804 24.927 66.9974 24.5618V5.30997Z" fill="#F7DD43"/>
<path d="M85.0693 18.966H83.3102V29.5446H76.6454V0.365219H85.0693C89.0778 0.365219 92.1026 1.17505 94.4737 2.83601V16.4952C92.1442 18.118 89.0746 18.966 85.0693 18.966ZM87.8506 5.38937C87.2386 4.94475 86.4183 4.7415 85.0277 4.7415H83.2269V14.5897H85.0277C86.3766 14.5897 87.1937 14.3865 87.8506 13.9831V5.38937Z" fill="#F7DD43"/>
<path d="M108.415 29.5446V18.966H103.51V29.5446H96.8865V2.14685C99.2993 0.727263 102.693 0 105.964 0C109.236 0 112.587 0.730439 115 2.14685V29.5446H108.415ZM108.415 5.06543C107.72 4.7415 106.861 4.57953 105.961 4.57953C105.061 4.57953 104.202 4.7415 103.506 5.06543V14.3452H108.412V5.06543H108.415Z" fill="#F7DD43"/>
<path d="M32.656 58.984L33.088 67.24C32.384 68.424 31.44 69.496 30.256 70.456C29.072 71.416 27.6 72.2 25.84 72.808C24.08 73.384 22 73.672 19.6 73.672C15.696 73.64 12.272 72.936 9.328 71.56C6.416 70.152 4.16 68.152 2.56 65.56C0.96 62.968 0.16 59.832 0.16 56.152C0.16 52.568 0.944 49.48 2.512 46.888C4.08 44.264 6.32 42.248 9.232 40.84C12.176 39.432 15.68 38.728 19.744 38.728C22.304 38.728 24.592 38.984 26.608 39.496C28.656 40.008 30.368 40.632 31.744 41.368L31.792 49.576H31.36C30.496 46.408 29.088 44.152 27.136 42.808C25.184 41.432 22.896 40.744 20.272 40.744C17.712 40.744 15.52 41.368 13.696 42.616C11.872 43.864 10.464 45.624 9.472 47.896C8.48 50.168 7.984 52.888 7.984 56.056C7.984 59.224 8.448 61.96 9.376 64.264C10.336 66.568 11.68 68.36 13.408 69.64C15.168 70.92 17.232 71.592 19.6 71.656C22.064 71.656 24.144 71.256 25.84 70.456C27.536 69.656 28.896 68.328 29.92 66.472C30.976 64.616 31.76 62.12 32.272 58.984H32.656ZM50.7651 42.904L64.9731 72.76H56.8611L47.9331 51.688L50.7651 42.904ZM41.7411 69.832C41.3891 70.696 41.4371 71.368 41.8851 71.848C42.3331 72.296 42.8291 72.52 43.3731 72.52H43.7571V73H34.1571V72.52C34.1571 72.52 34.2211 72.52 34.3491 72.52C34.4771 72.52 34.5411 72.52 34.5411 72.52C35.1811 72.52 35.8531 72.328 36.5571 71.944C37.2611 71.528 37.8371 70.824 38.2851 69.832H41.7411ZM50.7651 42.904L50.8611 48.664L40.4451 72.856H36.8931L48.1251 48.712C48.1891 48.52 48.3331 48.184 48.5571 47.704C48.7811 47.192 49.0211 46.632 49.2771 46.024C49.5331 45.384 49.7731 44.792 49.9971 44.248C50.2211 43.672 50.3491 43.224 50.3811 42.904H50.7651ZM54.9411 63.592V65.464H42.7011V63.592H54.9411ZM55.6611 69.832H63.5811C64.0611 70.824 64.6531 71.528 65.3571 71.944C66.0611 72.328 66.7331 72.52 67.3731 72.52C67.3731 72.52 67.4371 72.52 67.5651 72.52C67.6931 72.52 67.7571 72.52 67.7571 72.52V73H53.6451V72.52H54.0291C54.5731 72.52 55.0691 72.296 55.5171 71.848C55.9651 71.368 56.0131 70.696 55.6611 69.832ZM81.3873 44.344V73H74.4273V44.344H81.3873ZM91.8513 44.152V46.072H64.0113V44.152H91.8513ZM91.8513 45.928V51.016H91.3233V50.584C91.3553 49.208 90.9713 48.12 90.1713 47.32C89.4033 46.52 88.3313 46.104 86.9553 46.072V45.928H91.8513ZM91.8513 43.432V44.632L86.7633 44.152C87.3713 44.152 88.0273 44.12 88.7313 44.056C89.4353 43.96 90.0753 43.864 90.6512 43.768C91.2273 43.64 91.6273 43.528 91.8513 43.432ZM74.5233 69.976V73H71.3073V72.52C71.3073 72.52 71.3873 72.52 71.5473 72.52C71.7393 72.52 71.8353 72.52 71.8353 72.52C72.5393 72.52 73.1313 72.28 73.6113 71.8C74.1233 71.288 74.3953 70.68 74.4273 69.976H74.5233ZM81.2433 69.976H81.3873C81.3873 70.68 81.6433 71.288 82.1553 71.8C82.6673 72.28 83.2913 72.52 84.0273 72.52C84.0273 72.52 84.1073 72.52 84.2673 72.52C84.4593 72.52 84.5553 72.52 84.5553 72.52V73H81.2433V69.976ZM68.9073 45.928V46.072C67.4993 46.104 66.4113 46.52 65.6433 47.32C64.9073 48.12 64.5393 49.208 64.5393 50.584V51.016H64.0113V45.928H68.9073ZM64.0113 43.432C64.2993 43.496 64.7153 43.592 65.2593 43.72C65.8353 43.848 66.4593 43.96 67.1313 44.056C67.8353 44.12 68.4753 44.152 69.0513 44.152L64.0113 44.632V43.432ZM104.625 42.904L118.833 72.76H110.721L101.793 51.688L104.625 42.904ZM95.6005 69.832C95.2485 70.696 95.2965 71.368 95.7445 71.848C96.1925 72.296 96.6885 72.52 97.2325 72.52H97.6165V73H88.0165V72.52C88.0165 72.52 88.0805 72.52 88.2085 72.52C88.3365 72.52 88.4005 72.52 88.4005 72.52C89.0405 72.52 89.7125 72.328 90.4165 71.944C91.1205 71.528 91.6965 70.824 92.1445 69.832H95.6005ZM104.625 42.904L104.721 48.664L94.3045 72.856H90.7525L101.984 48.712C102.049 48.52 102.193 48.184 102.417 47.704C102.641 47.192 102.881 46.632 103.137 46.024C103.393 45.384 103.633 44.792 103.857 44.248C104.081 43.672 104.209 43.224 104.241 42.904H104.625ZM108.801 63.592V65.464H96.5605V63.592H108.801ZM109.521 69.832H117.441C117.921 70.824 118.513 71.528 119.217 71.944C119.921 72.328 120.593 72.52 121.233 72.52C121.233 72.52 121.297 72.52 121.425 72.52C121.553 72.52 121.617 72.52 121.617 72.52V73H107.505V72.52H107.889C108.433 72.52 108.929 72.296 109.377 71.848C109.825 71.368 109.873 70.696 109.521 69.832ZM131.771 44.2H136.955C138.267 44.2 139.547 44.344 140.795 44.632C142.043 44.888 143.163 45.32 144.155 45.928C145.147 46.504 145.931 47.304 146.507 48.328C147.115 49.32 147.419 50.568 147.419 52.072C147.419 53.192 147.179 54.312 146.699 55.432C146.251 56.52 145.531 57.464 144.539 58.264C143.579 59.064 142.315 59.592 140.747 59.848C141.675 60.136 142.555 60.696 143.387 61.528C144.251 62.36 144.923 63.144 145.403 63.88C145.531 64.136 145.755 64.552 146.075 65.128C146.395 65.672 146.795 66.312 147.275 67.048C147.787 67.752 148.315 68.488 148.859 69.256C149.499 70.12 150.059 70.792 150.539 71.272C151.019 71.72 151.515 72.04 152.027 72.232C152.539 72.424 153.131 72.52 153.803 72.52V73H149.771C148.043 73 146.571 72.872 145.355 72.616C144.171 72.36 143.131 71.896 142.235 71.224C141.371 70.52 140.571 69.576 139.835 68.392C139.547 67.976 139.243 67.48 138.923 66.904C138.603 66.296 138.283 65.688 137.963 65.08C137.643 64.472 137.355 63.88 137.099 63.304C136.875 62.728 136.715 62.248 136.619 61.864C136.203 60.84 135.723 60.104 135.179 59.656C134.667 59.176 134.187 58.936 133.739 58.936V58.504C133.739 58.504 133.851 58.504 134.075 58.504C134.299 58.504 134.587 58.504 134.939 58.504C135.611 58.504 136.267 58.392 136.907 58.168C137.579 57.912 138.187 57.448 138.731 56.776C139.275 56.072 139.675 55.048 139.931 53.704C139.995 53.512 140.043 53.24 140.075 52.888C140.139 52.536 140.155 52.136 140.123 51.688C140.059 50.504 139.835 49.56 139.451 48.856C139.099 48.12 138.651 47.576 138.107 47.224C137.563 46.84 137.003 46.584 136.427 46.456C135.883 46.296 135.403 46.216 134.987 46.216C134.379 46.184 133.819 46.184 133.307 46.216C132.827 46.216 132.459 46.2 132.203 46.168C132.171 46.168 132.123 46.008 132.059 45.688C131.995 45.336 131.931 45 131.867 44.68C131.803 44.36 131.771 44.2 131.771 44.2ZM132.251 44.2V73H125.291V44.2H132.251ZM125.435 69.976L125.627 73H122.171V72.52C122.203 72.52 122.283 72.52 122.411 72.52C122.571 72.52 122.683 72.52 122.747 72.52C123.451 72.52 124.043 72.28 124.523 71.8C125.035 71.288 125.307 70.68 125.339 69.976H125.435ZM125.435 47.176H125.339C125.307 46.44 125.035 45.848 124.523 45.4C124.043 44.92 123.467 44.68 122.795 44.68C122.699 44.68 122.571 44.68 122.411 44.68C122.283 44.68 122.203 44.68 122.171 44.68V44.2H125.627L125.435 47.176ZM132.155 69.976H132.251C132.251 70.776 132.523 71.4 133.067 71.848C133.643 72.296 134.251 72.52 134.891 72.52C134.891 72.52 134.955 72.52 135.083 72.52C135.211 72.52 135.307 72.52 135.371 72.52V73H131.915L132.155 69.976Z" fill="#FEE000"/>
</svg>
