<svg width="157" height="87" viewBox="0 0 157 87" fill="none" xmlns="http://www.w3.org/2000/svg">
<path d="M43.6261 29.9099C40.3962 29.9099 37.0029 29.3033 34.3434 27.8424V2.06746C36.9613 0.647867 40.3546 0 43.6261 0C46.8976 0 50.2108 0.606582 52.8254 2.06746V11.957H46.2407V5.2274C45.4653 4.90347 44.5233 4.78278 43.5844 4.78278C42.6456 4.78278 41.7836 4.90347 40.9666 5.2274V24.6825C41.742 25.0064 42.6424 25.1271 43.5844 25.1271C44.5265 25.1271 45.4236 25.0064 46.2407 24.6825V17.9561H52.8254V27.8456C50.2492 29.2652 46.8559 29.8718 43.6261 29.913V29.9099Z" fill="#F7DD43"/>
<path d="M65.1745 29.9099C61.6979 29.9099 58.3463 29.1794 55.6868 27.6804V2.18814C58.3047 0.730438 61.6595 0 65.1745 0C68.6896 0 71.9611 0.689153 74.5789 2.18814V27.6804C72.0027 29.1794 68.6095 29.8686 65.1745 29.9099ZM67.9974 5.30997C67.222 4.98604 66.28 4.82407 65.1361 4.82407C63.9922 4.82407 63.0918 4.98604 62.3131 5.30997V24.5618C63.0886 24.927 64.0306 25.089 65.1361 25.089C66.2415 25.089 67.1804 24.927 67.9974 24.5618V5.30997Z" fill="#F7DD43"/>
<path d="M86.0693 18.966H84.3102V29.5446H77.6454V0.365219H86.0693C90.0778 0.365219 93.1026 1.17505 95.4737 2.83601V16.4952C93.1442 18.118 90.0746 18.966 86.0693 18.966ZM88.8506 5.38937C88.2386 4.94475 87.4183 4.7415 86.0277 4.7415H84.2269V14.5897H86.0277C87.3766 14.5897 88.1937 14.3865 88.8506 13.9831V5.38937Z" fill="#F7DD43"/>
<path d="M109.415 29.5446V18.966H104.51V29.5446H97.8865V2.14685C100.299 0.727263 103.693 0 106.964 0C110.236 0 113.587 0.730439 116 2.14685V29.5446H109.415ZM109.415 5.06543C108.72 4.7415 107.861 4.57953 106.961 4.57953C106.061 4.57953 105.202 4.7415 104.506 5.06543V14.3452H109.412V5.06543H109.415Z" fill="#F7DD43"/>
<path d="M18.88 73.672L17.488 71.752C19.344 71.88 21.024 72.056 22.528 72.28C24.032 72.472 25.456 72.712 26.8 73C28.144 73.32 29.504 73.688 30.88 74.104C32.256 74.552 33.728 75.064 35.296 75.64C36.864 76.248 38.64 76.936 40.624 77.704C42.768 78.536 44.88 79.144 46.96 79.528C49.072 79.912 51.088 80.056 53.008 79.96C54.928 79.864 56.72 79.528 58.384 78.952C60.048 78.376 61.536 77.544 62.848 76.456L63.136 76.648C63.04 78.152 62.56 79.56 61.696 80.872C60.832 82.184 59.632 83.304 58.096 84.232C56.56 85.16 54.736 85.784 52.624 86.104C50.544 86.456 48.24 86.408 45.712 85.96C43.184 85.544 40.496 84.616 37.648 83.176C35.856 82.28 34.16 81.304 32.56 80.248C30.96 79.224 29.392 78.232 27.856 77.272C26.352 76.312 24.864 75.496 23.392 74.824C21.92 74.184 20.416 73.8 18.88 73.672ZM19.168 38.728C23.008 38.728 26.336 39.448 29.152 40.888C32 42.296 34.192 44.296 35.728 46.888C37.264 49.48 38.032 52.584 38.032 56.2C38.032 59.784 37.264 62.888 35.728 65.512C34.192 68.104 32 70.12 29.152 71.56C26.304 72.968 22.976 73.672 19.168 73.672C15.328 73.672 11.984 72.968 9.136 71.56C6.32 70.12 4.144 68.104 2.608 65.512C1.072 62.92 0.304 59.816 0.304 56.2C0.304 52.616 1.072 49.528 2.608 46.936C4.144 44.312 6.32 42.296 9.136 40.888C11.984 39.448 15.328 38.728 19.168 38.728ZM19.168 71.656C21.44 71.656 23.392 71.032 25.024 69.784C26.688 68.504 27.952 66.712 28.816 64.408C29.712 62.104 30.16 59.368 30.16 56.2C30.16 53.032 29.712 50.296 28.816 47.992C27.952 45.688 26.688 43.912 25.024 42.664C23.392 41.384 21.44 40.744 19.168 40.744C16.896 40.744 14.928 41.384 13.264 42.664C11.632 43.912 10.368 45.688 9.472 47.992C8.608 50.296 8.176 53.032 8.176 56.2C8.176 59.368 8.624 62.104 9.52 64.408C10.416 66.712 11.68 68.504 13.312 69.784C14.976 71.032 16.928 71.656 19.168 71.656ZM53.7183 42.904L67.9263 72.76H59.8143L50.8863 51.688L53.7183 42.904ZM44.6943 69.832C44.3423 70.696 44.3903 71.368 44.8383 71.848C45.2863 72.296 45.7823 72.52 46.3263 72.52H46.7103V73H37.1102V72.52C37.1102 72.52 37.1742 72.52 37.3022 72.52C37.4302 72.52 37.4942 72.52 37.4942 72.52C38.1342 72.52 38.8063 72.328 39.5103 71.944C40.2143 71.528 40.7903 70.824 41.2383 69.832H44.6943ZM53.7183 42.904L53.8143 48.664L43.3983 72.856H39.8463L51.0782 48.712C51.1423 48.52 51.2863 48.184 51.5103 47.704C51.7343 47.192 51.9743 46.632 52.2303 46.024C52.4863 45.384 52.7263 44.792 52.9503 44.248C53.1743 43.672 53.3023 43.224 53.3343 42.904H53.7183ZM57.8943 63.592V65.464H45.6543V63.592H57.8943ZM58.6143 69.832H66.5343C67.0143 70.824 67.6063 71.528 68.3103 71.944C69.0143 72.328 69.6863 72.52 70.3263 72.52C70.3263 72.52 70.3903 72.52 70.5183 72.52C70.6463 72.52 70.7103 72.52 70.7103 72.52V73H56.5983V72.52H56.9823C57.5263 72.52 58.0223 72.296 58.4703 71.848C58.9183 71.368 58.9663 70.696 58.6143 69.832ZM84.3404 44.344V73H77.3804V44.344H84.3404ZM94.8044 44.152V46.072H66.9644V44.152H94.8044ZM94.8044 45.928V51.016H94.2764V50.584C94.3084 49.208 93.9244 48.12 93.1244 47.32C92.3564 46.52 91.2844 46.104 89.9084 46.072V45.928H94.8044ZM94.8044 43.432V44.632L89.7164 44.152C90.3244 44.152 90.9804 44.12 91.6844 44.056C92.3884 43.96 93.0284 43.864 93.6044 43.768C94.1804 43.64 94.5804 43.528 94.8044 43.432ZM77.4764 69.976V73H74.2604V72.52C74.2604 72.52 74.3404 72.52 74.5004 72.52C74.6924 72.52 74.7884 72.52 74.7884 72.52C75.4924 72.52 76.0844 72.28 76.5644 71.8C77.0764 71.288 77.3484 70.68 77.3804 69.976H77.4764ZM84.1964 69.976H84.3404C84.3404 70.68 84.5964 71.288 85.1084 71.8C85.6204 72.28 86.2444 72.52 86.9804 72.52C86.9804 72.52 87.0604 72.52 87.2204 72.52C87.4124 72.52 87.5084 72.52 87.5084 72.52V73H84.1964V69.976ZM71.8604 45.928V46.072C70.4524 46.104 69.3644 46.52 68.5964 47.32C67.8604 48.12 67.4924 49.208 67.4924 50.584V51.016H66.9644V45.928H71.8604ZM66.9644 43.432C67.2524 43.496 67.6684 43.592 68.2124 43.72C68.7884 43.848 69.4124 43.96 70.0844 44.056C70.7884 44.12 71.4284 44.152 72.0044 44.152L66.9644 44.632V43.432ZM107.578 42.904L121.786 72.76H113.674L104.746 51.688L107.578 42.904ZM98.5536 69.832C98.2016 70.696 98.2496 71.368 98.6976 71.848C99.1456 72.296 99.6416 72.52 100.186 72.52H100.57V73H90.9696V72.52C90.9696 72.52 91.0336 72.52 91.1616 72.52C91.2896 72.52 91.3536 72.52 91.3536 72.52C91.9936 72.52 92.6656 72.328 93.3696 71.944C94.0736 71.528 94.6496 70.824 95.0976 69.832H98.5536ZM107.578 42.904L107.674 48.664L97.2576 72.856H93.7056L104.938 48.712C105.002 48.52 105.146 48.184 105.37 47.704C105.594 47.192 105.834 46.632 106.09 46.024C106.346 45.384 106.586 44.792 106.81 44.248C107.034 43.672 107.162 43.224 107.194 42.904H107.578ZM111.754 63.592V65.464H99.5136V63.592H111.754ZM112.474 69.832H120.394C120.874 70.824 121.466 71.528 122.17 71.944C122.874 72.328 123.546 72.52 124.186 72.52C124.186 72.52 124.25 72.52 124.378 72.52C124.506 72.52 124.57 72.52 124.57 72.52V73H110.458V72.52H110.842C111.386 72.52 111.882 72.296 112.33 71.848C112.778 71.368 112.826 70.696 112.474 69.832ZM134.724 44.2H139.908C141.22 44.2 142.5 44.344 143.748 44.632C144.996 44.888 146.116 45.32 147.108 45.928C148.1 46.504 148.884 47.304 149.46 48.328C150.068 49.32 150.372 50.568 150.372 52.072C150.372 53.192 150.132 54.312 149.652 55.432C149.204 56.52 148.484 57.464 147.492 58.264C146.532 59.064 145.268 59.592 143.7 59.848C144.628 60.136 145.508 60.696 146.34 61.528C147.204 62.36 147.876 63.144 148.356 63.88C148.484 64.136 148.708 64.552 149.028 65.128C149.348 65.672 149.748 66.312 150.228 67.048C150.74 67.752 151.268 68.488 151.812 69.256C152.452 70.12 153.012 70.792 153.492 71.272C153.972 71.72 154.468 72.04 154.98 72.232C155.492 72.424 156.084 72.52 156.756 72.52V73H152.724C150.996 73 149.524 72.872 148.308 72.616C147.124 72.36 146.084 71.896 145.188 71.224C144.324 70.52 143.524 69.576 142.788 68.392C142.5 67.976 142.196 67.48 141.876 66.904C141.556 66.296 141.236 65.688 140.916 65.08C140.596 64.472 140.308 63.88 140.052 63.304C139.828 62.728 139.668 62.248 139.572 61.864C139.156 60.84 138.676 60.104 138.132 59.656C137.62 59.176 137.14 58.936 136.692 58.936V58.504C136.692 58.504 136.804 58.504 137.028 58.504C137.252 58.504 137.54 58.504 137.892 58.504C138.564 58.504 139.22 58.392 139.86 58.168C140.532 57.912 141.14 57.448 141.684 56.776C142.228 56.072 142.628 55.048 142.884 53.704C142.948 53.512 142.996 53.24 143.028 52.888C143.092 52.536 143.108 52.136 143.076 51.688C143.012 50.504 142.788 49.56 142.404 48.856C142.052 48.12 141.604 47.576 141.06 47.224C140.516 46.84 139.956 46.584 139.38 46.456C138.836 46.296 138.356 46.216 137.94 46.216C137.332 46.184 136.772 46.184 136.26 46.216C135.78 46.216 135.412 46.2 135.156 46.168C135.124 46.168 135.076 46.008 135.012 45.688C134.948 45.336 134.884 45 134.82 44.68C134.756 44.36 134.724 44.2 134.724 44.2ZM135.204 44.2V73H128.244V44.2H135.204ZM128.388 69.976L128.58 73H125.124V72.52C125.156 72.52 125.236 72.52 125.364 72.52C125.524 72.52 125.636 72.52 125.7 72.52C126.404 72.52 126.996 72.28 127.476 71.8C127.988 71.288 128.26 70.68 128.292 69.976H128.388ZM128.388 47.176H128.292C128.26 46.44 127.988 45.848 127.476 45.4C126.996 44.92 126.42 44.68 125.748 44.68C125.652 44.68 125.524 44.68 125.364 44.68C125.236 44.68 125.156 44.68 125.124 44.68V44.2H128.58L128.388 47.176ZM135.108 69.976H135.204C135.204 70.776 135.476 71.4 136.02 71.848C136.596 72.296 137.204 72.52 137.844 72.52C137.844 72.52 137.908 72.52 138.036 72.52C138.164 72.52 138.26 72.52 138.324 72.52V73H134.868L135.108 69.976Z" fill="#FEE000"/>
</svg>
